<?xml version="1.0" encoding="UTF-8" standalone="no"?>
<svg
   width="523.19318"
   zoomAndPan="magnify"
   viewBox="0 0 523.19318 490.9648"
   height="490.96481"
   preserveAspectRatio="xMidYMid"
   version="1.0"
   id="svg105"
   xmlns="http://www.w3.org/2000/svg"
   xmlns:svg="http://www.w3.org/2000/svg">
  <defs
     id="defs4">
    <clipPath
       id="4b7ef30c7a">
      <path
         d="M 217,308 H 562 V 626.15625 H 217 Z m 0,0"
         clip-rule="nonzero"
         id="path3" />
    </clipPath>
    <clipPath
       id="aa0e6e0ae3">
      <path
         d="m 316,135.17969 h 33 V 295 h -33 z m 0,0"
         clip-rule="nonzero"
         id="path4" />
    </clipPath>
  </defs>
  <g
     id="g105"
     transform="translate(-43.474115,-135.19141)">
    <g
       clip-path="url(#4b7ef30c7a)"
       id="g7">
      <path
         fill="#f79611"
         d="m 238.78125,522.59375 c 0,-103.64063 84.01562,-187.65625 187.65234,-187.65625 52.83985,0 100.57422,21.83984 134.67969,56.98437 -33.64453,-50.42578 -91.05078,-83.64062 -156.21094,-83.64062 -103.64062,0 -187.65234,84.01172 -187.65234,187.65234 0,50.79688 20.1875,96.88282 52.97266,130.66797 -19.85938,-29.77344 -31.44141,-65.53515 -31.44141,-104.00781"
         fill-opacity="1"
         fill-rule="nonzero"
         id="path7" />
    </g>
    <path
       fill="#fcbb17"
       d="m 248.15625,523.50391 c -16.77734,-98.23829 49.26172,-191.48438 147.50781,-208.25782 50.08594,-8.55468 98.8711,4.42188 136.89063,32.21485 C 492.5,305.10547 432.70312,282.91016 370.93359,293.45703 272.69141,310.23437 206.64844,403.47656 223.42578,501.71875 c 8.22266,48.15625 34.82031,88.57422 71.37109,115.29297 -23.64843,-25.00391 -40.41406,-57.03516 -46.64062,-93.50781"
       fill-opacity="1"
       fill-rule="nonzero"
       id="path8" />
    <path
       fill="#f79611"
       d="m 506.85937,318.53516 c -0.0859,-26.69922 9.71875,-49.9375 16.98829,-62.58594 7.84375,-13.65625 30.71093,-43.41016 41.60937,-28.59375 10.34766,14.0664 -48.78516,67.30078 -58.59766,91.17969"
       fill-opacity="1"
       fill-rule="nonzero"
       id="path9" />
    <path
       fill="#f79611"
       d="m 424.47656,290.85156 c -2.97656,-25.99219 -0.90234,-53.10547 9.6875,-77.92969 2.8125,-6.58984 24.88281,-54.46093 42.41797,-43.99609 15.67578,9.35547 -15.35937,52.35547 -21.76562,62.57422 -8.84766,14.11328 -23.25391,35.89844 -30.33985,59.35156"
       fill-opacity="1"
       fill-rule="nonzero"
       id="path10" />
    <path
       fill="#f79611"
       d="m 278.03125,331.52734 c -35.40234,-17.64062 -67.96094,-42 -94.53125,-71.04297 -7.69531,-8.41406 -43.02344,-54.72656 -26.79297,-63.84765 16.78125,-9.42969 55.68359,43.66797 62.82422,53.46094 10.76172,14.76171 37.45312,56.60937 58.5,81.42968"
       fill-opacity="1"
       fill-rule="nonzero"
       id="path11" />
    <path
       fill="#f79611"
       d="m 213.04297,404.59766 c -16.04688,-14.83204 -48.26563,-26.89063 -73.60547,-34.65625 -9.08594,-2.78516 -70.554688,-19.64844 -66.359375,-35.78125 8.605469,-33.10157 122.417965,20.23046 139.964845,70.4375"
       fill-opacity="1"
       fill-rule="nonzero"
       id="path12" />
    <path
       fill="#f79611"
       d="m 195.49609,476.13672 c -42.58984,-8.69531 -160.136715,8.42187 -151.578121,-18.79297 4.648437,-14.76953 26.183593,-17.33594 40.492187,-17.85156 13.542969,-0.48828 68.750004,8.21093 111.085934,36.64453"
       fill-opacity="1"
       fill-rule="nonzero"
       id="path13" />
    <path
       fill="#f79611"
       d="M 209.28906,570.875 C 166.66016,560.66797 75.152344,590.31641 78.445312,566.15625 82.921875,533.32031 179.99219,549.38672 209.28906,570.875"
       fill-opacity="1"
       fill-rule="nonzero"
       id="path14" />
    <g
       clip-path="url(#aa0e6e0ae3)"
       id="g15">
      <path
         fill="#f79611"
         d="m 338.33984,294.80469 c -12.65234,-23.78125 -16.9375,-47.19141 -20.17968,-72.17188 -2.26954,-17.49609 -3.08204,-35.02344 -0.16797,-52.6875 1.6289,-9.875 8.46484,-34.76562 20.13281,-34.7539 19.89453,0.0234 5.62891,69.54296 3.95703,82.57031 -1.9375,15.07422 -6.65234,42.28515 -3.74219,77.04297"
         fill-opacity="1"
         fill-rule="nonzero"
         id="path15" />
    </g>
  </g>
</svg>
